<?xml version="1.0" encoding="UTF-8"?>
<svg xmlns="http://www.w3.org/2000/svg" id="Layer_1" data-name="Layer 1" viewBox="0 0 250 59.15">
  <defs>
    <style>
      .cls-1 {
        fill-rule: evenodd;
      }

      .cls-1, .cls-2 {
        fill: #fff;
      }

      .cls-3 {
        fill: #17ace3;
      }

      .cls-4 {
        fill: #17ace4;
      }
    </style>
  </defs>
  <path class="cls-1" d="M192.06,55.71c0,.53.43.96.96.96h1.6v-6.4c0-.78.18-1.34.54-1.71.76-.72,1.95-.72,2.71,0,.38.34.57.91.57,1.71v6.4h1.51c.28,0,.53-.11.73-.3.19-.19.3-.45.3-.72v-5.38c0-.78.18-1.34.54-1.71.37-.36.87-.55,1.38-.53.51-.02,1,.18,1.36.53.34.34.51.91.51,1.71v5.39c0,.28.1.55.3.75.2.19.47.31.75.3h1.51v-6.29c0-3.05-1.37-4.58-4.1-4.58-1.76,0-2.95.7-3.53,2.1-.6-1.39-1.79-2.1-3.55-2.1-2.74,0-4.1,1.52-4.1,4.58v5.29h.01ZM247.41,50.23c0-.32-.06-.62-.15-.92-.19-.59-.62-1.08-1.21-1.32-.34-.15-.71-.22-1.09-.21-.72-.02-1.42.23-1.96.69-.54.45-.87,1.1-.91,1.8l5.31-.03h.01ZM250,51.73v-.33l-.03-.03c.02-.81-.1-1.62-.36-2.39-.23-.65-.58-1.24-1.05-1.73-.44-.46-.97-.82-1.57-1.05-.64-.24-1.31-.34-1.99-.33-.73,0-1.46.13-2.14.39-1.33.5-2.37,1.53-2.89,2.84-.29.71-.43,1.47-.42,2.24,0,.77.13,1.53.42,2.24.27.64.66,1.21,1.17,1.68.51.46,1.1.82,1.75,1.05.7.25,1.45.37,2.2.36,1.95,0,3.42-.68,4.43-2.03l-1-.78c-.38-.3-.92-.28-1.3.03-.17.14-.35.26-.54.36-.5.25-1.06.37-1.63.36-.37,0-.74-.07-1.09-.21-.32-.12-.63-.29-.91-.51-.27-.23-.48-.5-.63-.81-.17-.31-.27-.64-.3-.99h7.84c.02-.11.03-.23.03-.35h.01ZM174.85,50.23c0-.32-.06-.62-.15-.92-.18-.61-.62-1.1-1.21-1.34-.33-.13-.7-.19-1.05-.18-.73-.02-1.44.22-1.99.69-.54.45-.87,1.1-.91,1.8l5.31-.04h0ZM177.47,51.73v-.33l-.06-.03c.02-.81-.11-1.62-.36-2.39-.22-.64-.57-1.23-1.03-1.73-.45-.46-1-.82-1.59-1.05-.64-.24-1.31-.34-1.99-.33-.73,0-1.46.13-2.14.39-1.33.5-2.37,1.53-2.89,2.84-.29.71-.43,1.47-.42,2.24,0,.77.13,1.53.42,2.24.27.64.66,1.21,1.17,1.68.51.46,1.1.82,1.75,1.05.7.25,1.45.37,2.2.36,1.97,0,3.46-.68,4.46-2.03l-1-.78c-.38-.3-.92-.28-1.29.03-.16.14-.33.26-.51.36-.51.26-1.08.38-1.66.36-.37,0-.74-.07-1.08-.21-.32-.12-.63-.29-.91-.51-.27-.23-.48-.5-.63-.81-.17-.31-.27-.64-.3-.99h7.84c0-.11.02-.23.02-.35h0ZM226.22,56.66h-1.54c-.57,0-1.03-.45-1.03-1.02v-12.05c.02-.55.47-.99,1.03-.99h1.54v14.06ZM230.47,51.64v-5.78h-1.51c-.55,0-1.01.44-1.03.99v4.79c0,1.51.4,2.73,1.21,3.65.8.92,2.06,1.38,3.76,1.38s2.93-.46,3.74-1.38c.8-.92,1.21-2.13,1.21-3.65v-5.78h-2.57v5.78c0,1.87-.8,2.81-2.41,2.81s-2.4-.94-2.4-2.81h0ZM162.56,54.15c.28.3,1.05.27,1.57.15l-.03.03c.31-.1.64-.04.91.15.33.33.36.92.24,1.34-.06.21-.19.4-.36.53-.19.11-.39.18-.6.21l-.28.06c-.73.12-1.47.07-2.17-.15-.53-.16-1-.48-1.36-.9-.6-.76-.91-1.94-.91-3.53v-9.44h1.51c.28,0,.53.09.74.28.19.19.32.44.32.71v2.3h2.87v1.91h-2.87v4.54c0,.91.15,1.51.42,1.81h0Z"></path>
  <path class="cls-3" d="M210.69,58.31c.92,0,1.66-.74,1.66-1.64s-.74-1.64-1.66-1.64-1.66.74-1.66,1.64.74,1.64,1.66,1.64Z"></path>
  <path class="cls-1" d="M218.59,53.49c.26-.32.45-.69.57-1.08h-.03c.11-.38.18-.77.18-1.17s-.06-.81-.18-1.2c-.11-.39-.3-.75-.54-1.08-.24-.31-.55-.57-.91-.75-.41-.2-.87-.31-1.33-.3-.44,0-.87.1-1.26.3-.37.19-.7.46-.96.78-.27.31-.47.66-.6,1.05s-.19.79-.18,1.2c0,.4.06.81.18,1.2.14.38.34.74.6,1.04.27.31.6.57.96.75.82.4,1.77.4,2.59,0,.35-.19.66-.44.91-.75h0ZM186.97,53.52c.27-.31.47-.66.6-1.05.14-.38.21-.79.21-1.2s-.07-.81-.21-1.2c-.14-.38-.34-.74-.6-1.05-.27-.31-.6-.57-.96-.75-.82-.4-1.77-.4-2.59,0-.35.19-.66.44-.91.75-.24.32-.43.69-.54,1.08-.11.38-.18.77-.18,1.17s.04.81.15,1.2c.13.4.33.76.6,1.08.24.31.55.57.91.75.4.2.85.31,1.3.3.44,0,.87-.1,1.26-.3.36-.19.7-.45.96-.78h0ZM189.93,49.1c.3.69.45,1.43.45,2.19v5.09h-1.63c-.26,0-.51-.11-.7-.29-.18-.19-.28-.44-.28-.7v-.12h-.06c-.15.16-.33.32-.51.45-.23.18-.47.32-.72.45-.33.15-.67.28-1.03.36-.43.09-.86.13-1.3.12-1.38.02-2.69-.55-3.62-1.56-.45-.49-.8-1.08-1.03-1.71-.24-.67-.36-1.38-.36-2.1s.13-1.49.42-2.19c.27-.65.67-1.24,1.17-1.73.53-.49,1.14-.86,1.81-1.11,1.41-.53,2.96-.53,4.37,0,.66.25,1.26.62,1.78,1.11.53.5.93,1.09,1.21,1.75h.03ZM221.58,49.12c-.23-.64-.57-1.23-1.03-1.73-.93-1-2.25-1.55-3.62-1.52-.44,0-.87.04-1.3.12-.34.07-.67.17-1,.3-.26.1-.52.21-.75.36-.19.12-.36.27-.51.42h-.06v-3.47c0-.56-.46-1.02-1.03-1.02h-1.57v10.77c1.31,0,2.49.79,3.01,1.98.19.43.5.79.91,1.02.5.22,1.04.33,1.59.33.28.02.57.02.84,0,.31-.02.61-.09.91-.18l.06-.03c.83-.26,1.59-.7,2.23-1.29.52-.49.92-1.09,1.21-1.73.29-.7.44-1.46.42-2.21,0-.71-.12-1.43-.36-2.1h.04v-.02h.01Z"></path>
  <g>
    <path class="cls-4" d="M146.58,42.49l.02.05,2.32,5.83,2.25-5.83.02-.05h1.1l-.04.11-4.18,10.37-.02.05h-1.11l.04-.11,1.35-3.33-2.88-6.98-.04-.11h1.17Z"></path>
    <path class="cls-4" d="M148.1,53.09h-1.27l.09-.21,1.34-3.3-2.95-7.17h1.33l.04.1,2.25,5.65,2.22-5.75h1.26l-4.3,10.68h0ZM147.06,52.94h.94l4.18-10.37h-.93l-2.32,6.02-2.4-6.02h-.99l2.89,7.01v.03l-1.37,3.33Z"></path>
  </g>
  <g>
    <path class="cls-4" d="M138.64,39.99v3.84c.23-.38.55-.71.95-.96h0c.5-.32,1.09-.48,1.77-.48s1.25.15,1.77.46c.52.3.93.73,1.22,1.3.3.56.45,1.2.45,1.94s-.15,1.38-.45,1.95c-.29.56-.7,1-1.23,1.31h0c-.52.31-1.11.46-1.75.46-.68,0-1.28-.15-1.78-.46h0c-.4-.26-.71-.58-.94-.96v1.32h-1.04v-9.71h1.04-.01ZM141.18,43.33c-.47,0-.9.11-1.29.34h0c-.38.22-.69.55-.91.96-.22.42-.34.9-.34,1.46s.11,1.04.34,1.46.53.74.91.96h0c.39.23.82.34,1.29.34s.92-.11,1.3-.33.68-.54.9-.96h0c.23-.43.34-.92.34-1.49s-.11-1.07-.34-1.47h0c-.22-.42-.52-.74-.9-.95-.38-.22-.82-.33-1.3-.33h0Z"></path>
    <path class="cls-4" d="M141.36,49.88c-.7,0-1.31-.16-1.82-.47-.33-.21-.61-.47-.82-.77v1.14h-1.2v-9.87h1.2v3.67c.22-.3.5-.56.83-.77.51-.32,1.12-.49,1.81-.49s1.28.16,1.81.47.95.75,1.25,1.33c.3.56.46,1.22.46,1.97s-.15,1.41-.46,1.98c-.28.54-.67.97-1.17,1.29h0l-.08.05c-.53.31-1.13.47-1.79.47h-.02ZM138.56,48.1l.14.24c.22.37.53.68.91.93.49.3,1.07.45,1.74.45.61,0,1.17-.14,1.66-.42l.05-.03c.51-.3.92-.73,1.2-1.28.29-.55.44-1.19.44-1.91s-.15-1.36-.44-1.9c-.28-.55-.68-.97-1.19-1.27-.5-.3-1.09-.45-1.73-.45s-1.24.16-1.73.46c-.39.25-.7.57-.93.94l-.14.24v-4.04h-.89v9.56h.89v-1.52h.02ZM141.18,48.94c-.48,0-.93-.12-1.33-.35l-.25-.14h.03c-.29-.22-.54-.5-.72-.85-.23-.43-.35-.93-.35-1.5s.12-1.07.35-1.5c.23-.43.55-.76.94-.99l.05-.03h0c.39-.21.82-.32,1.28-.32.5,0,.95.11,1.34.34.39.22.71.55.93.98.23.42.35.93.35,1.51s-.12,1.08-.34,1.51h0c-.22.44-.53.77-.93,1-.39.22-.84.34-1.34.34h-.01ZM139.94,48.46c.37.21.79.32,1.24.32s.9-.11,1.26-.32.65-.52.86-.91v-.02c.23-.41.34-.9.34-1.45s-.11-1.04-.33-1.44c-.21-.4-.5-.71-.87-.92s-.8-.32-1.26-.32-.87.11-1.25.33l-.03.02c-.35.22-.64.52-.85.92-.22.41-.33.89-.33,1.42s.11,1.02.33,1.43c.22.4.51.72.88.93h0Z"></path>
  </g>
  <path class="cls-2" d="M208.32,26.93l2.12-.02c.21,0,.41.25.37.47-.89,4.1-3.75,7.01-8.04,7.26-4.86.28-8.18-2.99-9.25-7.52-.64-2.74-.59-5.57.23-8.27,1.16-3.84,4.29-6.74,8.47-6.7,2.66.02,5.05,1.28,6.56,3.44,1.67,2.39,2.13,5.13,2.1,8.03,0,.12-.17.39-.29.46h-14.86c.07,4.24,2.21,8.7,7.13,8.25,3.01-.28,4.88-2.39,5.46-5.39h0ZM208.1,22.1c-.05-1.72-.38-3.26-1.13-4.69-1.09-2.16-3.35-3.35-5.76-2.98-3.68.56-5.34,4.29-5.49,7.67h12.38Z"></path>
  <path class="cls-2" d="M150.66,33.85l-.04-13.81c0-.89-.29-1.71-.59-2.51-.35-.94-.96-1.73-1.84-2.24-1.81-1.03-4.06-.77-5.61.65-1.31,1.2-2.07,2.85-2.24,4.64l-.04,13.24c0,.21-.22.43-.41.43h-1.79c-.19,0-.41-.21-.41-.44V6.61c0-.25.22-.47.42-.47h1.78c.22,0,.41.23.41.45l.02,10.07c.67-1.05,1.31-2.01,2.19-2.83,1.34-1.27,3.08-1.87,4.93-1.61,2.31.18,4.25,1.62,5.07,3.77.36.94.72,1.89.72,2.94l.04,14.9c0,.19-.22.41-.38.41h-1.85c-.13,0-.37-.2-.37-.39h-.01Z"></path>
  <path class="cls-2" d="M173.02,31.61c-2.9,3.39-7.86,4.04-11.49,1.47-4.22-2.99-5.15-9.23-3.77-13.88.54-1.81,1.45-3.45,2.81-4.72,3.96-3.7,10.32-2.85,13.22,1.72.68,1.07,1.18,2.17,1.5,3.43,1.01,3.94.47,8.75-2.28,11.97h.01ZM170.76,30.27c.8-.85,1.35-1.76,1.72-2.85,1.13-3.37.91-7.87-1.49-10.64-2.43-2.82-6.74-2.77-9.11.09-2.79,3.37-2.75,9.83.06,13.14,2.29,2.7,6.36,2.86,8.83.26h0Z"></path>
  <path class="cls-2" d="M191.31,33.7c0,.34-.2.54-.52.54l-5.81-.02c-.7,0-1.43-.19-1.94-.68-.67-.64-1.22-1.58-1.22-2.58l-.04-15.98-5.25-.03-.07-1.94c.03-.25.21-.45.47-.45h3.8c.32,0,1.01-.33,1.01-.72l.05-5.26c0-.24.28-.45.49-.45h1.68c.31,0,.49.23.49.55l.02,5.89h6.41c.24,0,.42.24.42.45v1.59c-.02.14-.17.36-.33.36l-6.51.03v16.79h6.41c.24,0,.44.28.43.48v1.45-.02Z"></path>
  <path class="cls-2" d="M111.18,33.42c-.13.47-.61.82-1.11.81h-4.17c-.49-.02-1.06-.44-1.06-.99V13.3c0-.52.31-1.18.89-1.18h4.52c.55,0,.95.54.95,1.09v16.45l-.02,3.76h0Z"></path>
  <path class="cls-2" d="M110.13,10.63l-2.13-1.08-2.18,1.08c-.28.14-.78-.03-1-.21-.21-.17-.4-.56-.35-.88l.35-2.29-1.65-1.63c-.21-.21-.26-.66-.19-.97.06-.25.33-.64.66-.69l2.35-.38,1.07-2.03c.16-.31.56-.54.86-.55.33,0,.8.18.97.51l.8,1.61c.11.22.33.46.58.5l2.1.34c.3.05.56.46.62.7.08.33-.02.8-.26,1.04l-1.6,1.55.35,2.19c.06.35-.08.77-.34.99-.2.17-.69.36-1,.2h-.01Z"></path>
  <path class="cls-2" d="M225.86,31.79l4.42-.02V8.64l-4.01-.03c-.22,0-.41-.26-.42-.45v-1.58c.03-.28.23-.46.53-.46l6.51.02v25.63h4.42v2.46h-11.44l-.02-2.45h.01Z"></path>
  <path class="cls-2" d="M213.19,33.75v-1.51c0-.23.19-.48.46-.48l3.97.02V8.64l-3.97-.04c-.26,0-.45-.21-.47-.45v-1.67c.05-.16.27-.36.47-.36l6.57.02-.02,25.62h4.41l.02,2.47h-10.98c-.3,0-.48-.23-.48-.48h.02Z"></path>
  <path class="cls-2" d="M249.57,34.24h-11.02l.02-2.46,4.39-.02V14.99l-4.38-.04-.05-1.95c0-.18.18-.44.4-.44h6.64v19.23h4.07c.15-.01.35.24.36.36v1.7c0,.14-.18.39-.43.39h0Z"></path>
  <path class="cls-2" d="M244.26,9.67c1.17,0,2.11-.94,2.11-2.11s-.95-2.11-2.11-2.11-2.11.94-2.11,2.11.95,2.11,2.11,2.11Z"></path>
  <path class="cls-2" d="M57.98,18.75c-1.12-1.18-2.98-.85-3.83.42-.64.96-.76,2.01-.76,3.16l-.03,11.03c0,.47-.6.87-1.02.87h-4.26c-.4,0-1.04-.37-1.04-.88l-.02-20.13c0-.69.52-1.12,1.16-1.12h3.51c.7,0,1.19.49,1.2,1.2v1.18c0,.1.15.33.25.35.1.02.32-.07.38-.15.58-.67,1.13-1.26,1.8-1.81,1.98-1.61,4.71-1.55,6.68.09.76.63,1.37,1.41,1.9,2.25.09.14.43.43.55.3.75-.84,1.39-1.62,2.23-2.32,3.05-2.54,7.67-1.77,9.56,1.68.71,1.3,1.13,2.76,1.13,4.29v14.28c0,.47-.66.79-1.04.8l-4.09.02c-.43,0-1.14-.28-1.14-.81l-.05-11.75c0-1.18-.52-2.91-1.71-3.44-1.19-.53-2.63-.06-3.27,1.09-.39.71-.66,1.5-.66,2.34l-.02,11.53c0,.52-.46,1-.96,1h-4.33c-.78,0-1.06-.66-1.06-1.32l-.02-11.4c0-1-.33-2.01-1.03-2.75h-.01Z"></path>
  <path class="cls-2" d="M121.46,33.41c0,.45-.59.81-.96.81h-4.26c-.51.02-1.09-.39-1.09-.94v-.06l-.02-20c0-.57.48-1.11,1.02-1.11h3.71c.62,0,1.11.48,1.12,1.09l.02,1.29c0,.11.13.32.22.34.1.02.33-.05.41-.15,1.66-1.86,3.37-3.24,6.06-2.96,2.17.22,3.97,1.46,4.91,3.43.64,1.34,1,2.78,1.01,4.32l.03,13.59c0,.68-.53,1.16-1.15,1.16h-4.08c-.58,0-1.17-.41-1.17-1.06l-.04-11.58c0-1.09-.26-2.2-1.08-2.94-1.23-1.11-3.16-.67-3.93.75-.48.87-.67,1.74-.68,2.75l-.05,11.26h0Z"></path>
  <path class="cls-2" d="M99.98,34.22h-3.84c-.64,0-1.11-.52-1.11-1.13v-1.11c0-.1-.11-.29-.19-.34-.09-.06-.36,0-.44.08-1.61,1.64-3.21,2.99-5.65,2.91-3.96-.14-6.72-3.17-7.85-6.76-.97-3.09-.94-6.4.03-9.49,1.33-4.24,5.09-7.32,9.62-6.58,1,.16,1.89.67,2.61,1.34l1.3,1.21c.06.05.24.11.31.1.08,0,.23-.2.23-.29l.06-1.13c.02-.46.44-.93.9-.93h3.88c.59,0,.96.51,1.06,1.07v19.89c0,.58-.4.99-.92,1.16h0ZM93.73,19.96c-.59-1.19-1.77-1.89-3-1.93-1.26-.04-2.47.62-3.11,1.79-1.14,2.08-1.13,4.71.07,6.76.69,1.17,1.92,1.8,3.22,1.7,3.52-.28,4.29-5.32,2.82-8.32Z"></path>
  <path class="cls-2" d="M9.98,34.51c-4.3.79-7.77-2.33-9.1-6.16-1.57-4.51-1.15-10.4,2.16-14.06,1.47-1.62,3.46-2.56,5.65-2.6,3.19-.06,4.69,2.73,5.38,2.62.11-.02.26-.24.26-.37v-6.73c0-.51.39-1.06.93-1.06h4.32c.67-.02,1.12.5,1.12,1.18v25.93c-.01.55-.61.97-1.1.97h-3.7c-.63,0-1.06-.54-1.06-1.14v-1.15c0-.09-.13-.29-.22-.32-.1-.03-.35.04-.43.12-1.13,1.1-2.54,2.46-4.2,2.77h-.01ZM9.89,28.25c1.67.27,3.1-.71,3.77-2.18.9-2,.85-5.23-.69-6.91-1.36-1.49-3.63-1.53-5.01-.06-1.57,1.67-1.66,4.76-.82,6.8.49,1.17,1.44,2.14,2.75,2.35h0Z"></path>
  <path class="cls-2" d="M41.37,31.18c-3.96,4.56-10.88,4.61-14.91.15-3.84-4.26-4.07-11.07-.55-15.68,1.9-2.49,4.78-3.94,7.84-3.97,3.13-.03,6.05,1.4,7.99,3.9,3.49,4.5,3.4,11.25-.38,15.6h.01ZM36.63,26.84c1.39-1.99,1.39-5.37.04-7.3-.67-.96-1.72-1.53-2.84-1.53s-2.12.56-2.78,1.49c-1.38,1.93-1.36,5.31,0,7.29.66.96,1.69,1.53,2.79,1.53s2.11-.52,2.79-1.49h0Z"></path>
</svg>
